<svg xmlns="http://www.w3.org/2000/svg" viewBox="0 0 40.29 482.21"><defs><style>.cls-1{fill:none;stroke:#000;stroke-miterlimit:10;}</style></defs><g id="Layer_2" data-name="Layer 2"><g id="payload"><path class="cls-1" d="M54.33,13.22A93.93,93.93,0,0,0,37,54.85V91l-1.93,10.22H73.89L71.67,90.56V53.22a84.16,84.16,0,0,0-7.11-23.55A84.16,84.16,0,0,0,54.33,13.22Z" transform="translate(-34.33 -12.4)"/><line class="cls-1" x1="2.67" y1="78.6" x2="37.33" y2="78.15"/><line class="cls-1" x1="20" y1="0.82" x2="20" y2="78.6"/></g></g><g id="Layer_3" data-name="Layer 3"><g id="stage1_2"><polygon class="cls-1" points="0.74 88.82 39.55 88.82 39.55 418.15 0.74 418.15 0.74 198.6 0.74 88.82"/><line class="cls-1" x1="39.55" y1="198.6" x2="0.74" y2="198.6"/><line class="cls-1" x1="0.74" y1="125.86" x2="39.55" y2="125.86"/></g></g><g id="Layer_4" data-name="Layer 4"><g id="prop"><polygon class="cls-1" points="0.74 418.15 39.55 418.15 28.44 446.15 28.44 450.9 24.15 460.08 31.85 481.71 8.59 481.71 16.44 460.52 11.85 451.04 11.85 445.86 0.74 418.15"/><polyline class="cls-1" points="28.44 446.15 20.15 446.01 11.85 445.86"/><polyline class="cls-1" points="39.55 418.15 20.15 434.45 20.15 446.01"/><line class="cls-1" x1="0.74" y1="418.15" x2="20.15" y2="434.45"/></g></g></svg>