<svg xmlns="http://www.w3.org/2000/svg" viewBox="0 0 97.21 524.04"><defs><style>.cls-1,.cls-2{fill:none;stroke:#000;stroke-miterlimit:10;}.cls-1{stroke-width:2px;}</style></defs><g id="payload"><path class="cls-1" d="M318.07,57.44a39.44,39.44,0,0,0-20,32.63v64l6.25,11.08H332l6.25-10.92V91.63a45.58,45.58,0,0,0-8-22.41A44.93,44.93,0,0,0,318.07,57.44Z" transform="translate(-269.29 -56.27)"/><line class="cls-2" x1="68.92" y1="97.94" x2="28.8" y2="97.79"/><line class="cls-2" x1="48.86" y1="108.66" x2="48.78" y2="1.17"/></g><g id="body"><polygon class="cls-1" points="35.05 108.87 62.67 108.87 62.67 511.41 35.05 511.41 35.05 172.97 35.05 108.87"/><line class="cls-1" x1="35.05" y1="172.97" x2="62.67" y2="172.97"/><line class="cls-1" x1="35.05" y1="220.57" x2="62.67" y2="220.57"/><path class="cls-1" d="M329,567.68" transform="translate(-269.29 -56.27)"/></g><g id="boosters"><path class="cls-1" d="M336.59,243.24h27.68c.22-3.67.35-14.35-7-23.42a30.57,30.57,0,0,0-6.87-6.24,33.13,33.13,0,0,0-8.63,9A34.49,34.49,0,0,0,336.59,243.24Z" transform="translate(-269.29 -56.27)"/><polyline class="cls-1" points="67.31 186.96 67.31 223.23 67.31 511.41 95.71 511.41 94.98 186.96"/><polyline class="cls-1" points="67.31 223.23 62.67 223.23 62.67 226.5 67.31 226.5"/><polyline class="cls-1" points="67.31 389.88 62.67 389.88 62.67 393.29 67.31 393.29"/><path class="cls-1" d="M271.67,243.24h27.68c.21-3.67.34-14.35-7-23.42a30.76,30.76,0,0,0-6.86-6.24,33.14,33.14,0,0,0-8.64,9A34.53,34.53,0,0,0,271.67,243.24Z" transform="translate(-269.29 -56.27)"/><polyline class="cls-1" points="2.38 186.96 2.38 223.23 2.38 511.41 30.79 511.41 30.14 223.4 30.06 186.96"/><polyline class="cls-1" points="30.14 223.4 35.05 223.4 35.05 226.59 30.14 226.59"/><polyline class="cls-1" points="30.51 390.03 35.05 390.03 35.05 393.23 30.52 393.23"/><polyline class="cls-1" points="67.31 507.56 62.67 507.56 62.67 510.73 67.31 510.73"/><polyline class="cls-1" points="30.79 510.73 35.05 510.73 35.05 507.56 30.79 507.56"/></g><g id="engines"><polygon class="cls-1" points="6.25 511.41 1.49 523.04 30.79 523.04 26.7 511.41 6.25 511.41"/><polygon class="cls-1" points="41.52 511.41 34.58 523.04 63.38 523.04 56.98 511.41 41.52 511.41"/><polygon class="cls-1" points="72.51 511.41 66.81 523.04 95.71 523.04 90.85 511.41 72.51 511.41"/></g></svg>