<svg xmlns="http://www.w3.org/2000/svg" viewBox="0 0 112 500"><defs><style>.cls-1{fill:none;stroke:#000;stroke-miterlimit:10;}</style></defs><g id="Layer_2" data-name="Layer 2"><g id="stage2_payload" data-name="stage2/payload"><path class="cls-1" d="M54.63,6.11A85.12,85.12,0,0,0,48,14.37,82.76,82.76,0,0,0,33,60.48V212.63H76v-153A81,81,0,0,0,68.11,26,80.24,80.24,0,0,0,54.63,6.11Z"/><polyline class="cls-1" points="33 150.11 11.22 183.3 11.22 212.63 33 212.63"/><polyline class="cls-1" points="75.96 212.63 97.3 212.63 97.3 183 75.96 150.11"/><polyline class="cls-1" points="75.96 59.59 90.7 59.59 90.7 44.26 67.17 24.06"/><polyline class="cls-1" points="33 59.59 18.04 59.59 18.04 44.7 42.16 24.06"/></g><line class="cls-1" x1="48.01" y1="14.37" x2="61.42" y2="14.37"/></g><g id="Layer_3" data-name="Layer 3"><g id="stage1"><polygon class="cls-1" points="33 212.78 33 477.81 76.11 477.81 75.96 212.78 33 212.78"/><polygon class="cls-1" points="42.7 452.78 28.85 460.63 28.85 475.67 33 477.81 42.7 477.81 42.7 452.78"/><polygon class="cls-1" points="64.85 452.78 79.44 460.19 79.44 475.52 76.11 477.81 64.85 477.81 64.85 452.78"/></g></g><g id="Layer_4" data-name="Layer 4"><g id="engine"><polygon class="cls-1" points="32.7 477.81 30.26 480.41 30.26 488.41 75.37 488.41 77.81 488.41 77.81 479.67 76.11 477.89 32.7 477.81"/><polygon class="cls-1" points="30.26 493.52 31.22 488.41 72.7 488.41 77 488.41 77.81 493.52 73.37 493.52 30.26 493.52"/></g></g></svg>